<svg width="315" height="117" viewBox="0 0 315 117" fill="none" xmlns="http://www.w3.org/2000/svg">
<g clip-path="url(#clip0_49_5)">
<mask id="mask0_49_5" style="mask-type:luminance" maskUnits="userSpaceOnUse" x="75" y="15" width="31" height="50">
<path d="M104.422 64.6871C109.788 43.9746 95.8468 20.6937 75.1343 15.5156C93.7118 24.3933 105.483 44.1626 104.422 64.6871Z" fill="white"/>
</mask>
<g mask="url(#mask0_49_5)">
<path d="M133.196 32.5865L97.7583 81.1844L51.7256 47.6206L87.1631 -0.980469L133.196 32.5865Z" fill="url(#paint0_linear_49_5)"/>
</g>
<mask id="mask1_49_5" style="mask-type:luminance" maskUnits="userSpaceOnUse" x="-1" y="-1" width="112" height="118">
<path d="M-0.0174715 52.1552C-3.36971 82.7714 19.3152 111.555 49.8455 115.57C74.5698 119.455 101.26 105.138 110.906 82.0098C107.617 75.0919 90.1297 38.9247 86.4301 31.2483C85.9362 30.2254 85.1682 29.3746 84.2123 28.7692C81.3571 26.8732 77.1095 27.9152 75.5927 31.0348C75.5003 30.952 72.5941 36.8056 69.6434 42.6593C66.5684 48.7551 63.436 54.8542 63.3659 54.2424L53.0256 32.6408C52.0442 30.5504 49.8359 29.2057 47.5288 29.2249C45.2186 29.228 43.0295 30.6206 42.0671 32.7205L25.2741 68.8048C24.9172 69.576 24.7292 70.379 24.6973 71.1788C24.3404 75.965 30.073 79.091 33.9415 76.6437C34.1932 76.4844 34.4354 76.3028 34.668 76.0956C35.8343 75.0982 42.9052 59.43 46.1076 52.5854C46.9011 50.8901 47.4587 49.7334 47.6276 49.4785V49.4753C48.8927 51.3203 57.7863 73.0111 59.9978 73.3839C62.8911 75.3404 67.2089 74.2028 68.7321 71.045C70.2361 68.1197 79.5408 49.8959 80.8186 47.4104L99.103 85.6329C96.9807 88.7589 94.5048 91.6236 91.7166 94.1824C76.5263 108.493 52.3501 111.46 34.1422 101.25C18.5154 92.9174 8.22291 75.7132 8.22291 58.0088C7.79592 34.7981 25.0606 13.5312 47.822 9.07319C53.3538 7.91329 59.0737 7.70935 64.6788 8.48049C66.9572 8.79596 69.2196 9.26438 71.447 9.89532C72.1448 10.0961 72.8873 10.1088 73.5883 9.93993C75.5767 9.51293 77.0521 7.45124 76.7462 5.43735C76.3574 2.0182 72.4731 1.60714 69.7645 1.00807C65.8674 0.195499 61.9033 -0.212378 57.9393 -0.212378C57.678 -0.215565 57.4167 -0.21875 57.1554 -0.21875C28.3331 -0.215563 2.42979 23.2788 -0.0174715 52.1552Z" fill="white"/>
</mask>
<g mask="url(#mask1_49_5)">
<path d="M110.654 -5.58984L116.54 119.192L-3.1147 124.835L-9.00342 0.0535125L110.654 -5.58984Z" fill="url(#paint1_linear_49_5)"/>
</g>
<mask id="mask2_49_5" style="mask-type:luminance" maskUnits="userSpaceOnUse" x="14" y="14" width="79" height="89">
<path d="M20.2587 79.7575C34.3878 106.295 74.382 110.167 92.4146 85.7609C80.258 96.8979 62.0278 101.958 46.1429 95.5755C6.61394 79.6906 13.653 24.5189 52.4172 14.8828C22.075 17.8399 4.88047 53.7745 20.2587 79.7575Z" fill="white"/>
</mask>
<g mask="url(#mask2_49_5)">
<path d="M-42.1851 55.135L55.4345 -28.3555L139.479 69.9109L41.8598 153.401L-42.1851 55.135Z" fill="url(#paint2_linear_49_5)"/>
</g>
<path d="M127.285 66.9414V21.3357H136.148L151.996 56.9146H149.926L165.775 21.3357H174.573V66.9414H165.387V35.9554H167.975L153.808 66.9414H147.986L133.754 35.9554H136.471V66.9414H127.285ZM199.799 67.653C194.106 67.653 189.664 66.122 186.473 63.0601C183.281 59.9981 181.686 55.8365 181.686 50.5751C181.686 47.1682 182.354 44.1925 183.691 41.648C185.071 39.1036 186.969 37.1198 189.384 35.6967C191.842 34.2304 194.71 33.4972 197.987 33.4972C201.222 33.4972 203.917 34.1872 206.073 35.5673C208.273 36.9473 209.912 38.888 210.99 41.3893C212.111 43.8475 212.672 46.7153 212.672 49.9929V52.257H189.707V47.4054H205.556L204.456 48.311C204.456 45.5941 203.895 43.5456 202.774 42.1655C201.696 40.7424 200.122 40.0308 198.052 40.0308C195.766 40.0308 193.998 40.8718 192.747 42.5537C191.54 44.2356 190.936 46.6506 190.936 49.7988V50.8339C190.936 54.0252 191.712 56.3971 193.265 57.9496C194.861 59.5022 197.146 60.2784 200.122 60.2784C201.89 60.2784 203.55 60.0628 205.103 59.6316C206.699 59.1572 208.208 58.424 209.631 57.4321L212.348 63.901C210.709 65.1086 208.812 66.0358 206.656 66.6827C204.542 67.3295 202.257 67.653 199.799 67.653ZM231.742 67.653C228.896 67.653 226.373 66.963 224.174 65.5829C222.017 64.2029 220.314 62.2407 219.063 59.6962C217.856 57.1518 217.252 54.0899 217.252 50.5104C217.252 46.9741 217.856 43.9337 219.063 41.3893C220.271 38.8449 221.974 36.9042 224.174 35.5673C226.373 34.1872 228.896 33.4972 231.742 33.4972C234.33 33.4972 236.637 34.1226 238.664 35.3732C240.734 36.5807 242.114 38.2195 242.804 40.2896H241.963V19.3304H251.731V66.9414H242.092V60.5372H242.933C242.243 62.6935 240.863 64.4185 238.793 65.7123C236.723 67.0061 234.373 67.653 231.742 67.653ZM234.653 60.2784C236.896 60.2784 238.707 59.4806 240.087 57.885C241.467 56.2893 242.157 53.8311 242.157 50.5104C242.157 47.1897 241.467 44.7531 240.087 43.2006C238.707 41.648 236.896 40.8718 234.653 40.8718C232.411 40.8718 230.578 41.648 229.155 43.2006C227.775 44.7531 227.085 47.1897 227.085 50.5104C227.085 53.8311 227.775 56.2893 229.155 57.885C230.578 59.4806 232.411 60.2784 234.653 60.2784ZM259.742 66.9414V34.1441H269.51V66.9414H259.742ZM259.354 28.7749V19.6538H269.833V28.7749H259.354ZM290.237 67.653C287.391 67.653 284.89 66.963 282.733 65.5829C280.577 64.2029 278.895 62.2407 277.688 59.6962C276.48 57.1518 275.876 54.0899 275.876 50.5104C275.876 46.9741 276.48 43.9337 277.688 41.3893C278.895 38.8449 280.577 36.9042 282.733 35.5673C284.89 34.1872 287.391 33.4972 290.237 33.4972C292.868 33.4972 295.218 34.1441 297.288 35.4379C299.401 36.6886 300.781 38.392 301.428 40.5483H300.717L301.493 34.1441H310.873C310.744 35.5673 310.614 37.012 310.485 38.4783C310.399 39.9014 310.355 41.303 310.355 42.6831V66.9414H300.652L300.587 60.796H301.364C300.674 62.866 299.294 64.5264 297.224 65.777C295.154 67.0277 292.825 67.653 290.237 67.653ZM293.213 60.2784C295.455 60.2784 297.267 59.4806 298.647 57.885C300.027 56.2893 300.717 53.8311 300.717 50.5104C300.717 47.1897 300.027 44.7531 298.647 43.2006C297.267 41.648 295.455 40.8718 293.213 40.8718C290.97 40.8718 289.159 41.648 287.779 43.2006C286.399 44.7531 285.709 47.1897 285.709 50.5104C285.709 53.8311 286.377 56.2893 287.714 57.885C289.094 59.4806 290.927 60.2784 293.213 60.2784Z" fill="black"/>
<path d="M128.238 100.391V82.1483H130.36L137.553 98.3465H136.777L143.97 82.1483H146.066V100.391H143.867V85.3569H144.669L137.915 100.391H136.389L129.635 85.3569H130.437V100.391H128.238ZM155.752 100.624C154.476 100.624 153.372 100.356 152.44 99.8214C151.509 99.2694 150.784 98.4931 150.267 97.4926C149.749 96.4748 149.49 95.2673 149.49 93.87C149.49 92.49 149.749 91.2997 150.267 90.2992C150.784 89.2814 151.509 88.5051 152.44 87.9704C153.372 87.4183 154.476 87.1423 155.752 87.1423C157.029 87.1423 158.133 87.4183 159.064 87.9704C160.013 88.5051 160.738 89.2814 161.238 90.2992C161.755 91.2997 162.014 92.49 162.014 93.87C162.014 95.2673 161.755 96.4748 161.238 97.4926C160.738 98.4931 160.013 99.2694 159.064 99.8214C158.133 100.356 157.029 100.624 155.752 100.624ZM155.752 98.7605C156.925 98.7605 157.865 98.3465 158.573 97.5184C159.28 96.6904 159.634 95.4743 159.634 93.87C159.634 92.2657 159.28 91.0582 158.573 90.2474C157.865 89.4366 156.925 89.0313 155.752 89.0313C154.562 89.0313 153.613 89.4366 152.906 90.2474C152.216 91.0582 151.871 92.2657 151.871 93.87C151.871 95.4743 152.216 96.6904 152.906 97.5184C153.613 98.3465 154.562 98.7605 155.752 98.7605ZM165.175 100.391V90.4544C165.175 89.9541 165.158 89.4453 165.124 88.9277C165.089 88.4102 165.037 87.8927 164.968 87.3752H167.245L167.504 90.1698H167.194C167.59 89.1865 168.203 88.4361 169.031 87.9186C169.859 87.4011 170.825 87.1423 171.929 87.1423C173.464 87.1423 174.62 87.565 175.396 88.4102C176.172 89.2383 176.561 90.532 176.561 92.2916V100.391H174.206V92.4209C174.206 91.2307 173.973 90.3768 173.507 89.8593C173.042 89.3245 172.317 89.0571 171.334 89.0571C170.161 89.0571 169.229 89.4108 168.539 90.118C167.866 90.8253 167.53 91.7827 167.53 92.9902V100.391H165.175ZM186.338 100.624C184.268 100.624 182.629 100.028 181.422 98.8381C180.232 97.6478 179.636 96.009 179.636 93.9217C179.636 92.5417 179.895 91.3514 180.413 90.3509C180.947 89.3331 181.681 88.5482 182.612 87.9962C183.544 87.427 184.63 87.1423 185.872 87.1423C187.063 87.1423 188.072 87.4011 188.9 87.9186C189.728 88.4189 190.357 89.1348 190.789 90.0663C191.22 90.9978 191.436 92.1018 191.436 93.3783V94.1546H181.474V92.7573H189.831L189.391 93.0937C189.391 91.7482 189.09 90.7045 188.486 89.9628C187.899 89.221 187.028 88.8501 185.872 88.8501C184.613 88.8501 183.638 89.29 182.948 90.1698C182.258 91.0323 181.913 92.2139 181.913 93.7147V93.9476C181.913 95.5346 182.302 96.7335 183.078 97.5443C183.871 98.3551 184.967 98.7605 186.364 98.7605C187.14 98.7605 187.865 98.6483 188.538 98.4241C189.21 98.1998 189.857 97.8289 190.478 97.3114L191.255 98.9416C190.668 99.4764 189.935 99.8904 189.055 100.184C188.193 100.477 187.287 100.624 186.338 100.624ZM199.352 100.624C197.989 100.624 196.954 100.253 196.247 99.5109C195.557 98.7518 195.212 97.6133 195.212 96.0953V89.1865H192.676V87.3752H195.212V83.882L197.567 83.2351V87.3752H201.241V89.1865H197.567V95.8883C197.567 96.8888 197.739 97.6047 198.084 98.0359C198.446 98.45 198.964 98.657 199.637 98.657C199.982 98.657 200.275 98.6311 200.517 98.5793C200.775 98.5103 201.008 98.4327 201.215 98.3465V100.287C200.956 100.391 200.655 100.468 200.31 100.52C199.982 100.589 199.663 100.624 199.352 100.624ZM203.711 100.391V87.3752H206.065V100.391H203.711ZM203.504 84.5289V81.9931H206.298V84.5289H203.504ZM208.191 100.391L214.091 93.0937V94.2581L208.528 87.3752H211.348L215.411 92.5762H214.557L218.619 87.3752H221.414L215.928 94.2064V93.1455L221.75 100.391H218.904L214.557 94.8274H215.411L211.012 100.391H208.191Z" fill="#616870"/>
<rect x="223.046" y="90.7812" width="88.4082" height="1.29378" fill="#606870"/>
<rect x="223.046" y="96.8164" width="88.4082" height="1.29378" fill="#606870"/>
</g>
<defs>
<linearGradient id="paint0_linear_49_5" x1="106.967" y1="20.2009" x2="88.0156" y2="46.192" gradientUnits="userSpaceOnUse">
<stop stop-color="#F1F6E6" stop-opacity="0.905882"/>
<stop offset="1"/>
</linearGradient>
<linearGradient id="paint1_linear_49_5" x1="53.7682" y1="-5.58984" x2="53.7682" y2="124.835" gradientUnits="userSpaceOnUse">
<stop offset="0.466346" stop-color="#F97316"/>
<stop offset="1" stop-color="#FF9F5C"/>
</linearGradient>
<linearGradient id="paint2_linear_49_5" x1="9.48931" y1="96.006" x2="70.127" y2="44.1447" gradientUnits="userSpaceOnUse">
<stop stop-color="#6E6E71"/>
<stop offset="1"/>
</linearGradient>
<clipPath id="clip0_49_5">
<rect width="315" height="117" fill="white"/>
</clipPath>
</defs>
</svg>
